<svg width="123" height="60" viewBox="0 0 123 60" fill="none" xmlns="http://www.w3.org/2000/svg">
<path fill-rule="evenodd" clip-rule="evenodd" d="M58.9375 12.6886L58.9307 0.010572L46.127 0L46.125 12.6665L58.9375 12.6886ZM10.9625 42.9564L0 45.2189C0.791168 54.7333 11.5185 59.8598 21.1413 59.6259C26.5249 59.495 31.4222 57.7516 34.5653 55.2339C41.8119 49.4292 41.7647 37.4113 32.1931 32.3706C28.5978 30.4772 24.6843 29.797 21.334 29.2147C16.9698 28.4562 13.561 27.8637 13.0554 24.9723C12.0551 19.2524 23.3133 17.641 27.1666 22.7868C27.7006 23.4999 27.8688 24.0437 28.0487 24.6256C28.1669 25.0078 28.2902 25.4064 28.5255 25.8802L38.9294 23.5415C38.9675 23.525 39.0347 23.4933 39.0851 23.465C38.456 14.3245 27.0509 9.32704 17.3765 10.2588C-0.512967 11.9818 -4.753 31.5005 10.3996 37.6603C12.6637 38.5807 15.191 39.1154 17.6744 39.6408C19.9871 40.1301 22.2617 40.6114 24.2502 41.3885C29.666 43.5051 28.1276 49.3353 21.7618 49.9033C15.9601 50.4211 11.6163 47.9304 10.9625 42.9564ZM123 43.8006L111.776 40.218C111.459 40.7663 111.253 41.2578 111.056 41.7263L111.056 41.7264C110.774 42.399 110.512 43.0241 109.969 43.7014C109.148 44.7275 108.333 45.5834 107.112 46.3519C104.738 47.8452 101.366 48.4614 98.0166 47.7615C92.2751 46.5616 88.6602 41.9365 88.5027 35.3743C88.3384 28.5306 91.7009 23.6583 97.2666 22.2553C104.371 20.4646 109.746 24.1269 111.14 29.615L122.722 25.9169C121.595 20.3432 117.106 15.7268 113.33 13.5026C98.7292 4.90293 75.5455 13.1132 75.5938 34.9713C75.6415 56.5193 99.207 64.8811 113.419 56.3254C115.739 54.9283 117.828 53.0323 119.3 51.1899C120.62 49.5369 122.59 46.4711 123 43.8006ZM46.2362 24.1174L58.981 24.1108C58.9772 24.722 58.9694 25.6017 58.9599 26.6547L58.9599 26.6585V26.6587V26.6589C58.9137 31.8296 58.8302 41.1689 59.0075 43.3819C59.2556 46.4762 60.7005 48.0654 63.8083 48.465C67.0879 48.8867 68.8279 48.0977 71.0325 47.0981C71.2657 46.9924 71.5041 46.8843 71.75 46.7751L71.6692 56.892C66.3547 60.7824 53.2289 61.3044 48.2612 53.3803C46.1299 49.9807 46.1654 45.7566 46.2024 41.3577C46.2073 40.7828 46.2121 40.205 46.2122 39.6256C46.2123 38.0188 46.1909 36.3673 46.1692 34.7011V34.7006V34.7002V34.7002C46.1229 31.1431 46.0758 27.5186 46.2362 24.1174ZM71.75 24.1106L58.9375 24.1084L58.9388 11.4221L71.7495 11.4279L71.75 24.1106Z" fill="#4F008C"/>
</svg>
